<svg xmlns="http://www.w3.org/2000/svg" viewBox="0 0 32 32"><g fill="none" fill-rule="evenodd"><path fill="#C0C3C7" d="M5.88 24.162a13.023 13.023 0 01-1.295-1.936l-2.502.688a.575.575 0 01-.676-.333l-.379-.916a.587.587 0 01.242-.713l2.255-1.283a12.94 12.94 0 01-.452-2.285l-2.577-.322A.575.575 0 010 16.495v-.99c0-.279.226-.533.496-.567l2.577-.322a12.94 12.94 0 01.452-2.285L1.27 11.048a.575.575 0 01-.242-.713l.38-.916a.587.587 0 01.675-.333l2.502.688c.375-.685.809-1.333 1.296-1.936l-1.595-2.05a.575.575 0 01.05-.751l.7-.7a.587.587 0 01.752-.05l2.05 1.594c.603-.487 1.25-.921 1.936-1.296l-.688-2.502a.575.575 0 01.333-.676l.916-.379a.587.587 0 01.713.242l1.283 2.255c.736-.216 1.5-.37 2.285-.452l.322-2.577A.575.575 0 0115.505 0h.99c.279 0 .533.226.567.496l.322 2.577a12.94 12.94 0 012.285.452l1.283-2.255a.575.575 0 01.713-.242l.916.38a.587.587 0 01.333.675l-.688 2.502c.685.375 1.333.809 1.936 1.296l2.05-1.595a.575.575 0 01.751.05l.7.7a.587.587 0 01.05.752l-1.594 2.05c.487.603.921 1.25 1.296 1.936l2.502-.688a.575.575 0 01.676.333l.379.916a.587.587 0 01-.242.713l-2.255 1.283c.216.736.37 1.5.452 2.285l2.577.322a.575.575 0 01.496.567v.99a.587.587 0 01-.496.567l-2.577.322a12.94 12.94 0 01-.452 2.285l2.255 1.283c.24.136.353.445.242.713l-.38.916a.587.587 0 01-.675.333l-2.502-.688a13.023 13.023 0 01-1.296 1.936l1.595 2.05a.575.575 0 01-.05.751l-.7.7a.587.587 0 01-.752.05l-2.05-1.594c-.603.487-1.25.921-1.936 1.296l.688 2.502a.575.575 0 01-.333.676l-.916.379a.587.587 0 01-.713-.242l-1.283-2.255c-.736.216-1.5.37-2.285.452l-.322 2.577a.575.575 0 01-.567.496h-.99a.587.587 0 01-.567-.496l-.322-2.577a12.94 12.94 0 01-2.285-.452l-1.283 2.255a.575.575 0 01-.713.242l-.916-.38a.587.587 0 01-.333-.675l.688-2.502a13.023 13.023 0 01-1.936-1.296l-2.05 1.595a.575.575 0 01-.751-.05l-.7-.7a.587.587 0 01-.05-.752l1.594-2.05zM6 16c0 5.523 4.477 10 10 10s10-4.477 10-10S21.523 6 16 6 6 10.477 6 16z"/><path fill="#BFC3C7" d="M16 13a3 3 0 100 6 3 3 0 000-6zm0 4a1 1 0 100-2 1 1 0 000 2z"/><g fill="#BFC3C7"><path d="M13.968 17.246l-4.8 7.2 1.664 1.109 4.8-7.2zM18.11 16.812l8.98-.816-.18-1.992-8.98.816zM15.895 13.552l-4-8-1.79.895 4 8z"/></g></g></svg>