<svg width="32" height="32" viewBox="0 0 32 32" fill="none" xmlns="http://www.w3.org/2000/svg">
<path fill-rule="evenodd" clip-rule="evenodd" d="M20.873 20.002C20.638 20.368 20.117 20.478 19.758 20.238C19.727 20.219 19.697 20.198 19.669 20.177C18.622 20.998 17.333 21.446 15.993 21.446C14.656 21.446 13.37 21 12.325 20.182C12.298 20.201 12.271 20.221 12.243 20.238C11.873 20.479 11.36 20.364 11.127 20.005C10.891 19.641 10.994 19.148 11.356 18.905C11.67 18.698 11.692 18.281 11.692 18.281C11.7 18.065 11.794 17.859 11.951 17.714C12.107 17.569 12.303 17.485 12.519 17.502C12.952 17.512 13.304 17.876 13.296 18.314C13.296 18.32 13.295 18.539 13.216 18.843C14.831 20.184 17.172 20.179 18.781 18.832C18.722 18.599 18.707 18.413 18.703 18.327C18.699 18.102 18.779 17.898 18.93 17.743C19.078 17.591 19.278 17.505 19.491 17.501H19.505C19.938 17.501 20.297 17.85 20.307 18.284C20.307 18.284 20.33 18.699 20.641 18.904C21.005 19.144 21.109 19.635 20.873 20.002ZM24.288 10.636C24.057 8.682 23.192 6.876 21.803 5.48C20.21 3.879 18.105 3 15.877 3C13.649 3 11.545 3.879 9.952 5.481C8.557 6.882 7.69 8.698 7.464 10.663C5.551 10.895 3.782 11.786 2.416 13.217C0.858 14.852 0 17.013 0 19.301C0 24.098 3.8 28 8.473 28H23.526C28.197 28 32 24.098 32 19.301C32 14.768 28.604 11.033 24.288 10.636Z" fill="white"/>
</svg>
