<svg width="120" height="120" viewBox="0 0 120 120" fill="none" xmlns="http://www.w3.org/2000/svg">
<rect width="120" height="120" rx="27" fill="white"/>
<rect width="120" height="120" rx="27" fill="url(#paint0_linear_3283_56)"/>
<rect width="120" height="120" rx="27" fill="url(#paint1_linear_3283_56)"/>
<rect width="120" height="120" rx="27" fill="url(#paint2_linear_3283_56)"/>
<path d="M60.0355 17.8873C60.1177 17.8852 60.1965 17.9168 60.2755 17.9396C60.2975 17.9459 60.3208 17.9472 60.3431 17.9525C60.3578 17.956 60.3728 17.9603 60.3884 17.9614C60.6945 17.9931 60.9908 18.087 61.2594 18.2372C61.3427 18.2788 61.422 18.3284 61.5034 18.3741L67.465 21.7467L74.4364 25.6907C76.1228 26.643 77.8078 27.5966 79.4914 28.5515C79.5966 28.611 79.7017 28.6666 79.8029 28.73C80.4494 29.1254 80.9017 29.7725 81.0508 30.5155C81.0676 30.5939 81.0776 30.6735 81.0805 30.7536C81.0805 30.9401 81.0944 31.1266 81.0944 31.3151V39.3657C81.0944 42.3694 81.0944 45.373 81.0944 48.3766C81.0944 48.5373 81.0944 48.698 81.0944 48.8567C81.0815 49.2865 80.9556 49.7052 80.7294 50.0709C80.3915 50.6396 79.8585 51.0662 79.2296 51.2712C78.9613 51.3542 78.683 51.4003 78.4023 51.408C78.282 51.4071 78.162 51.3971 78.0432 51.3783C77.7239 51.3431 77.4142 51.2475 77.1306 51.0966C77.0354 51.047 76.9421 50.9934 76.8509 50.9418L67.8915 45.8729L61.5431 42.288L61.2296 42.1115C60.9786 41.9872 60.7115 41.8984 60.436 41.8476C60.3705 41.8354 60.3042 41.8282 60.2376 41.8258C60.1305 41.8258 60.0234 41.8258 59.9163 41.8258C59.5011 41.8284 59.0928 41.9312 58.7259 42.1254C58.6188 42.1809 58.5156 42.2424 58.4125 42.3019C56.1534 43.5954 53.8944 44.8896 51.6354 46.1844L43.5014 50.8446C43.3864 50.9121 43.2693 50.9775 43.1523 51.043C42.8941 51.1829 42.6167 51.2839 42.3289 51.3426C42.2766 51.3536 42.2236 51.3609 42.1702 51.3644L41.7735 51.3763C41.3975 51.3771 41.0266 51.2902 40.6902 51.1224C39.9608 50.7913 39.4183 50.1506 39.2122 49.3765C39.1484 49.158 39.115 48.9317 39.113 48.704V31.317C39.113 31.2099 39.113 31.1028 39.113 30.9976C39.1202 30.663 39.1874 30.3324 39.3114 30.0216C39.5202 29.4964 39.8887 29.0502 40.3649 28.7459C40.4542 28.6884 40.5494 28.6368 40.6406 28.5832L45.4357 25.8335L51.1355 22.568L56.8987 19.2728L58.3252 18.4554L58.6386 18.2788C58.8278 18.1756 59.0273 18.0925 59.2338 18.0308C59.3643 17.9987 59.4969 17.9755 59.6306 17.9614C59.7316 17.9461 59.8277 17.8925 59.9298 17.8899L60.0355 17.8873Z" fill="white"/>
<path d="M18.2366 67.0703C18.2366 66.9276 18.3694 66.7964 18.3814 66.6543C18.402 66.4958 18.4325 66.3388 18.4727 66.1841C18.6444 65.5742 19.0241 65.0436 19.5459 64.6842C19.6551 64.6089 19.7721 64.5414 19.8872 64.4859L23.5296 62.3829L31.6458 57.7009L34.8022 55.8777C34.9172 55.8122 35.0343 55.7448 35.1533 55.6793C35.5113 55.4956 35.9076 55.3991 36.3099 55.3974C37.0265 55.3891 37.7177 55.6627 38.2343 56.1594C38.5581 56.4621 38.7992 56.8424 38.9346 57.2644C39.018 57.5046 39.0635 57.7563 39.0696 58.0104C39.0696 58.1572 39.0696 58.304 39.0696 58.4508V75.3914C39.0696 75.564 39.0696 75.7386 39.0696 75.9112C39.0862 76.7947 39.5299 77.6154 40.2599 78.1133C40.3789 78.1966 40.5099 78.268 40.6368 78.3395L44.0968 80.2738L51.2269 84.2594L55.6431 86.7234C55.7601 86.7889 55.8772 86.8524 55.9903 86.9218C56.5996 87.2746 57.042 87.857 57.2183 88.5387C57.317 88.8861 57.3421 89.2504 57.2917 89.608C57.2488 89.9257 57.1536 90.234 57.01 90.5206C56.7878 90.9504 56.4523 91.3112 56.0399 91.5642C55.9268 91.6356 55.8078 91.6971 55.6907 91.7626L44.1483 98.111L40.2182 100.268C40.1131 100.325 40.0198 100.387 39.9028 100.44C39.7247 100.532 39.5371 100.605 39.3433 100.656C39.0716 100.728 38.7907 100.758 38.5101 100.746C38.0538 100.724 37.6104 100.587 37.2206 100.349L36.0124 99.6386L19.9626 90.2032C19.8594 90.1437 19.7642 90.0842 19.6531 90.0187C19.0346 89.6355 18.5958 89.0201 18.435 88.3106C18.4052 88.1935 18.3973 88.0725 18.3754 87.9554C18.365 87.9018 18.3275 87.8574 18.2763 87.8384C18.2547 87.8298 18.2386 87.8101 18.2386 87.7869L18.2366 67.0703Z" fill="white"/>
<path d="M80.8714 100.877C80.7957 100.877 80.7245 100.845 80.6566 100.811C80.5559 100.776 80.4532 100.746 80.3491 100.722C80.1012 100.666 79.8627 100.574 79.6409 100.45C79.5119 100.379 79.3869 100.303 79.26 100.23L73.3301 96.8075L64.5533 91.7466C64.46 91.693 64.3668 91.6414 64.2775 91.5839C63.6705 91.2052 63.2415 90.5981 63.0872 89.8996C63.0436 89.7176 63.0216 89.5312 63.0217 89.3441C62.9892 88.4301 63.4282 87.5634 64.1843 87.0487C64.2944 86.9766 64.4083 86.9103 64.5255 86.8503L69.5289 83.9816L76.2742 80.1189L79.4365 78.3076C79.5754 78.2283 79.7163 78.1509 79.8512 78.0656C80.3666 77.7462 80.7605 77.2637 80.9701 76.6947C81.0429 76.5079 81.0916 76.3126 81.1149 76.1134C81.1387 75.9013 81.1506 75.688 81.1506 75.4746C81.1506 74.7128 81.1506 73.9529 81.1506 73.1911C81.1506 68.3319 81.1506 63.4733 81.1506 58.6154C81.1506 58.4805 81.1506 58.3476 81.1506 58.2186C81.1506 58.0896 81.1506 58.0043 81.1625 57.8992C81.1965 57.2636 81.4643 56.6629 81.9144 56.2129C82.253 55.8674 82.6787 55.62 83.1464 55.4967C83.3518 55.4372 83.5637 55.4032 83.7773 55.3951C84.2198 55.3881 84.6576 55.4882 85.053 55.6871C85.1601 55.7407 85.2652 55.8002 85.3684 55.8617L89.3918 58.1809L96.4683 62.2658L100.178 64.4064C100.295 64.4739 100.41 64.5393 100.525 64.6048C100.996 64.8914 101.368 65.316 101.589 65.8209C101.631 65.905 101.658 65.9956 101.67 66.0888C101.7 66.2133 101.755 66.3349 101.755 66.463V88.2206C101.755 88.3199 101.685 88.4122 101.674 88.5108C101.659 88.6172 101.627 88.7203 101.579 88.8164C101.363 89.2937 101.012 89.6972 100.569 89.9769C100.458 90.0503 100.341 90.1158 100.226 90.1753L94.7721 93.302L82.6147 100.275C82.5116 100.335 82.4163 100.396 82.3013 100.452C82.0804 100.577 81.8425 100.668 81.595 100.724C81.5035 100.744 81.4134 100.771 81.3252 100.803C81.2563 100.828 81.1911 100.877 81.118 100.877H80.8714Z" fill="white"/>
<defs>
<linearGradient id="paint0_linear_3283_56" x1="120" y1="70" x2="-3.08941e-06" y2="70" gradientUnits="userSpaceOnUse">
<stop offset="0.12998" stop-color="#A033FF"/>
<stop offset="0.610381" stop-color="#0094FF"/>
<stop offset="1" stop-color="#4FB500"/>
</linearGradient>
<linearGradient id="paint1_linear_3283_56" x1="55" y1="37.5" x2="17.5" y2="112.5" gradientUnits="userSpaceOnUse">
<stop stop-color="#FFD600" stop-opacity="0"/>
<stop offset="0.563347" stop-color="#FFC700"/>
</linearGradient>
<linearGradient id="paint2_linear_3283_56" x1="65" y1="70" x2="107.5" y2="115" gradientUnits="userSpaceOnUse">
<stop offset="0.0297327" stop-color="#FF3B30" stop-opacity="0"/>
<stop offset="0.842824" stop-color="#E73B2D"/>
</linearGradient>
</defs>
</svg>
