<svg width="80" height="80" viewBox="0 0 80 80" fill="none" xmlns="http://www.w3.org/2000/svg">
<path fill-rule="evenodd" clip-rule="evenodd" d="M52.3907 38.1508C51.6633 37.6155 50.8085 36.5398 50.8385 36.0088C50.87 35.4588 50.6361 34.9787 50.1959 34.6912C49.728 34.3859 49.0925 34.3555 48.575 34.6148C48.0761 34.8654 47.7595 35.3525 47.7274 35.9177C47.6833 36.6939 47.9167 37.3562 48.2562 37.9507C43.1755 40.621 36.4207 40.5164 31.6229 37.6572C31.9298 37.015 32.093 36.2789 31.9874 35.4398C31.8656 34.4792 30.964 33.9899 30.1979 34.0854C29.396 34.1857 28.8867 34.8399 28.9879 35.6394C29.1043 36.5621 28.3317 37.2141 27.3088 37.9718C26.86 38.3043 26.6304 38.8343 26.6951 39.3876C26.7599 39.9463 27.1146 40.4415 27.5999 40.6503C27.7708 40.7241 27.9487 40.761 28.1266 40.761C28.4204 40.761 28.7137 40.6617 28.9759 40.4675C29.2235 40.2836 29.5173 40.0656 29.8225 39.8128C32.8525 41.6484 36.5257 42.5716 40.2053 42.5716C43.638 42.5711 47.0739 41.7683 49.9908 40.1567C50.2008 40.358 50.4266 40.5538 50.6758 40.7377C50.9516 40.9405 51.2569 41.0392 51.5556 41.0392C51.9908 41.0392 52.412 40.8299 52.709 40.429C53.1905 39.7792 53.2036 38.7491 52.3907 38.1508" fill="black"/>
<path fill-rule="evenodd" clip-rule="evenodd" d="M35.9036 5.87038C37.2279 5.51454 38.605 5.30897 39.9979 5.25906C41.3907 5.30897 42.7684 5.51454 44.0943 5.87092C51.0592 7.7374 56.105 13.531 56.95 20.6314C57.0403 21.3902 57.6481 21.9842 58.4109 22.059C62.1972 22.4306 66.2419 24.5835 69.2312 27.8174C71.8564 30.6576 73.3967 33.9761 73.6856 37.4135V37.4151C73.7873 38.6111 73.7199 39.8397 73.4859 41.0656C73.4816 41.0895 73.4772 41.1134 73.474 41.1372C73.2487 42.6945 72.4935 45.2531 71.3656 47.1918C68.9663 51.325 65.081 53.7024 58.4897 55.023V58.339C63.9318 57.3334 70.4479 55.2706 74.1906 48.8234C75.6254 46.3564 76.4372 43.4208 76.7 41.6379C76.984 40.1332 77.064 38.6204 76.9388 37.1406C76.5884 32.9759 74.7532 28.9891 71.6318 25.6114C68.3901 22.1041 64.2126 19.7396 60.0046 18.9954C58.5846 11.1427 52.79 4.83109 44.9432 2.72811C43.4029 2.3137 41.8044 2.07232 40.1895 2.00994C40.1248 2.00289 40.0573 1.99855 39.9936 2.00072C39.93 1.99801 39.8723 2.00343 39.8125 2.0094C38.196 2.07178 36.5953 2.31315 35.055 2.72757C27.206 4.83109 21.4109 11.1427 19.9919 18.9954C15.7823 19.7396 11.6048 22.1041 8.36529 25.6114C5.24277 28.9885 3.40702 32.9754 3.05717 37.1417C2.93203 38.6225 3.01255 40.1348 3.29657 41.6379C3.55882 43.4197 4.37005 46.3548 5.80481 48.8223C9.54483 55.264 16.0515 57.3293 21.4897 58.336V55.0197C14.9088 53.6984 11.0274 51.3211 8.62961 47.1918C7.50171 45.2521 6.74706 42.694 6.52236 41.1378C6.51934 41.1152 6.51539 41.0931 6.51138 41.0706L6.51039 41.0651C6.27643 39.8403 6.20896 38.6117 6.31016 37.414C6.59907 33.9756 8.13993 30.657 10.7662 27.8169C13.7527 24.5835 17.7969 22.4306 21.5849 22.059C22.3482 21.9842 22.9554 21.3897 23.0457 20.6314C23.8907 13.5316 28.9366 7.7374 35.9036 5.87038Z" fill="black"/>
<g clip-path="url(#clip0_2075_1090)">
<path d="M40.4709 46.4978H24.4897V62.479H40.4709V46.4978Z" fill="#E4032E"/>
<path d="M55.4897 61.5166H39.5085V77.4978H55.4897V61.5166Z" fill="#E4032E"/>
<path d="M32.4804 54.5394L34.2593 51.1784H35.7393V57.7983H34.252V54.0582L32.8887 56.7047H32.0429L30.7087 54.0874V57.7983H29.2214V51.1784H30.6942L32.4804 54.5394Z" fill="white"/>
<path d="M47.0034 71.4903H49.5916V72.8172H45.4067V66.1973H47.0034V71.4903Z" fill="white"/>
<mask id="mask0_2075_1090" style="mask-type:luminance" maskUnits="userSpaceOnUse" x="24" y="46" width="32" height="32">
<path d="M55.4897 46.4978H24.4897V77.4978H55.4897V46.4978Z" fill="white"/>
</mask>
<g mask="url(#mask0_2075_1090)">
<path d="M35.7392 69.4197V69.9228C35.7392 71.9934 34.7914 72.8828 33.3114 72.8828C31.8314 72.8828 30.8398 71.9934 30.8398 69.9228V69.1281C30.8398 67.0065 31.8314 66.1171 33.3114 66.1171C34.6529 66.1171 35.5059 66.8607 35.71 68.2459H34.6383C34.4779 67.4804 34.055 67.0794 33.3114 67.0794C32.4292 67.0794 31.9553 67.6554 31.9553 69.0771V69.9155C31.9553 71.3372 32.4365 71.9132 33.3114 71.9132C34.1863 71.9132 34.5727 71.4174 34.6529 70.3748H33.3405V69.4125H35.7392V69.4197Z" fill="#E4032E"/>
</g>
</g>
<defs>
<clipPath id="clip0_2075_1090">
<rect width="31" height="31" fill="white" transform="translate(24.4897 46.4978)"/>
</clipPath>
</defs>
</svg>
