<svg width="32" height="32" viewBox="0 0 32 32" fill="none" xmlns="http://www.w3.org/2000/svg">
<g clip-path="url(#clip0_627_6281)">
<path d="M12.8556 10.6688L12.5252 9.47704C11.1306 9.84282 10.0295 10.9047 9.65027 12.2499L10.8859 12.5684C11.1428 11.6481 11.9013 10.9165 12.8556 10.6688Z" fill="white"/>
<path d="M31.8429 17.0526C31.8429 12.5132 27.9264 8.81275 23.1079 8.802C23.0622 8.802 22.9823 8.802 22.8567 8.802C20.9613 6.69363 18.2323 5.48884 15.2749 5.48884C10.445 5.48884 6.33441 8.73745 5.50087 13.2231C5.4552 13.4598 5.42095 13.7072 5.39811 13.9546L7.23646 14.116C7.25929 13.9116 7.28213 13.7179 7.31638 13.5136C7.99006 9.86694 11.3356 7.22072 15.2635 7.22072C17.2389 7.22072 19.0887 7.88765 20.5388 9.07092C19.9793 9.20001 19.3513 9.38287 18.7119 9.64104C16.5766 10.5124 13.7335 12.4701 12.3176 16.8267C10.2395 22.2052 7.64752 23.3455 6.28874 23.5498C6.22023 23.5606 6.1403 23.5714 6.06037 23.5929H5.44378C5.16974 23.5929 4.8957 23.5606 4.63308 23.5068C3.04594 23.1518 1.92694 21.8287 1.92694 20.2797C1.92694 18.451 3.50267 16.9666 5.44378 16.9666C6.38008 16.9666 7.27071 17.3108 7.93297 17.9347C8.17276 18.1606 8.38971 18.4295 8.54956 18.7092L10.1253 17.9132C9.8855 17.4829 9.56579 17.0849 9.2004 16.7407C8.19559 15.794 6.87107 15.2777 5.4552 15.2777C2.53211 15.2777 0.157104 17.5152 0.157104 20.269C0.157104 22.5925 1.8356 24.5933 4.23344 25.1311C4.63308 25.2172 5.04414 25.2602 5.4552 25.2602H6.07179C6.15172 25.2817 6.23165 25.2925 6.31157 25.2925C6.3915 25.2925 6.47143 25.2817 6.55136 25.2602H9.72565C9.80558 25.2817 9.8855 25.2925 9.96543 25.2925H23.3705C23.4276 25.2925 23.4733 25.2925 23.519 25.2817C25.7455 25.1849 27.8237 24.2921 29.3766 22.7753C30.9637 21.2371 31.8429 19.204 31.8429 17.0526ZM23.3363 23.5498C23.3134 23.5498 23.2906 23.5498 23.2678 23.5606H10.1253C11.6782 22.216 13.037 20.1291 14.0874 17.3968C14.0989 17.3861 14.0989 17.3646 14.0989 17.3538C16.3711 10.2865 22.7654 10.5231 23.028 10.5446C23.0508 10.5446 23.0622 10.5446 23.0851 10.5446C26.8988 10.5446 29.9931 13.4598 29.9931 17.0526C29.9931 20.5701 27.0701 23.4315 23.3363 23.5498Z" fill="white"/>
<circle cx="25.7495" cy="25.7495" r="4.87474" fill="white"/>
<mask id="path-4-outside-1_627_6281" maskUnits="userSpaceOnUse" x="18.7224" y="18.7224" width="14" height="14" fill="black">
<rect fill="white" x="18.7224" y="18.7224" width="14" height="14"/>
<path fill-rule="evenodd" clip-rule="evenodd" d="M25.7495 30.7765C28.5259 30.7765 30.7766 28.5258 30.7766 25.7495C30.7766 22.9731 28.5259 20.7224 25.7495 20.7224C22.9731 20.7224 20.7224 22.9731 20.7224 25.7495C20.7224 28.5258 22.9731 30.7765 25.7495 30.7765ZM26.5009 26.4737C26.5726 26.522 26.6768 26.4998 26.7238 26.4262C26.771 26.3524 26.7502 26.2537 26.6774 26.2054C26.6152 26.1642 26.6106 26.0808 26.6106 26.0808C26.6086 25.9935 26.5368 25.9233 26.4503 25.9233H26.4475C26.4049 25.9241 26.3649 25.9414 26.3353 25.972C26.3051 26.0032 26.2891 26.0442 26.2899 26.0894C26.2907 26.1067 26.2937 26.1441 26.3055 26.191C25.9838 26.4618 25.5158 26.4628 25.1928 26.1932C25.2086 26.1321 25.2088 26.088 25.2088 26.0868C25.2104 25.9987 25.1401 25.9255 25.0535 25.9235C25.0103 25.9201 24.9711 25.937 24.9399 25.9662C24.9085 25.9953 24.8897 26.0367 24.8881 26.0802C24.8881 26.0802 24.8837 26.164 24.821 26.2057C24.7486 26.2545 24.728 26.3536 24.7752 26.4268C24.8218 26.499 24.9243 26.5222 24.9983 26.4737C25.0039 26.4703 25.0093 26.4663 25.0147 26.4624C25.2236 26.6269 25.4808 26.7166 25.7481 26.7166C26.016 26.7166 26.2737 26.6265 26.4831 26.4614C26.4887 26.4657 26.4947 26.4699 26.5009 26.4737ZM26.9097 23.5061C27.1875 23.7868 27.3604 24.15 27.4066 24.5429C28.2695 24.6227 28.9485 25.3738 28.9485 26.2853C28.9485 27.2499 28.1882 28.0345 27.2542 28.0345H24.2445C23.3102 28.0345 22.5504 27.2499 22.5504 26.2853C22.5504 25.8252 22.722 25.3907 23.0335 25.0619C23.3066 24.7741 23.6603 24.595 24.0428 24.5483C24.088 24.1532 24.2613 23.788 24.5402 23.5063C24.8588 23.1842 25.2794 23.0074 25.7249 23.0074C26.1704 23.0074 26.5912 23.1842 26.9097 23.5061Z"/>
</mask>
<path fill-rule="evenodd" clip-rule="evenodd" d="M25.7495 30.7765C28.5259 30.7765 30.7766 28.5258 30.7766 25.7495C30.7766 22.9731 28.5259 20.7224 25.7495 20.7224C22.9731 20.7224 20.7224 22.9731 20.7224 25.7495C20.7224 28.5258 22.9731 30.7765 25.7495 30.7765ZM26.5009 26.4737C26.5726 26.522 26.6768 26.4998 26.7238 26.4262C26.771 26.3524 26.7502 26.2537 26.6774 26.2054C26.6152 26.1642 26.6106 26.0808 26.6106 26.0808C26.6086 25.9935 26.5368 25.9233 26.4503 25.9233H26.4475C26.4049 25.9241 26.3649 25.9414 26.3353 25.972C26.3051 26.0032 26.2891 26.0442 26.2899 26.0894C26.2907 26.1067 26.2937 26.1441 26.3055 26.191C25.9838 26.4618 25.5158 26.4628 25.1928 26.1932C25.2086 26.1321 25.2088 26.088 25.2088 26.0868C25.2104 25.9987 25.1401 25.9255 25.0535 25.9235C25.0103 25.9201 24.9711 25.937 24.9399 25.9662C24.9085 25.9953 24.8897 26.0367 24.8881 26.0802C24.8881 26.0802 24.8837 26.164 24.821 26.2057C24.7486 26.2545 24.728 26.3536 24.7752 26.4268C24.8218 26.499 24.9243 26.5222 24.9983 26.4737C25.0039 26.4703 25.0093 26.4663 25.0147 26.4624C25.2236 26.6269 25.4808 26.7166 25.7481 26.7166C26.016 26.7166 26.2737 26.6265 26.4831 26.4614C26.4887 26.4657 26.4947 26.4699 26.5009 26.4737ZM26.9097 23.5061C27.1875 23.7868 27.3604 24.15 27.4066 24.5429C28.2695 24.6227 28.9485 25.3738 28.9485 26.2853C28.9485 27.2499 28.1882 28.0345 27.2542 28.0345H24.2445C23.3102 28.0345 22.5504 27.2499 22.5504 26.2853C22.5504 25.8252 22.722 25.3907 23.0335 25.0619C23.3066 24.7741 23.6603 24.595 24.0428 24.5483C24.088 24.1532 24.2613 23.788 24.5402 23.5063C24.8588 23.1842 25.2794 23.0074 25.7249 23.0074C26.1704 23.0074 26.5912 23.1842 26.9097 23.5061Z" fill="#297EF2"/>
<path d="M26.7238 26.4262L25.697 25.7697L25.6966 25.7704L26.7238 26.4262ZM26.5009 26.4737L27.1808 25.4623L27.1608 25.4489L27.1403 25.4362L26.5009 26.4737ZM26.6774 26.2054L27.3509 25.1898L27.3508 25.1897L26.6774 26.2054ZM26.6106 26.0808L25.3923 26.1087L25.3927 26.1283L25.3938 26.1478L26.6106 26.0808ZM26.4475 25.9233V24.7046H26.436L26.4245 24.7049L26.4475 25.9233ZM26.3353 25.972L27.2107 26.8199L27.2109 26.8197L26.3353 25.972ZM26.2899 26.0894L25.0714 26.111L25.0717 26.1283L25.0725 26.1457L26.2899 26.0894ZM26.3055 26.191L27.0904 27.1232L27.6734 26.6324L27.4873 25.8934L26.3055 26.191ZM25.1928 26.1932L24.0129 25.8883L23.8201 26.6346L24.4117 27.1286L25.1928 26.1932ZM25.2088 26.0868L23.9904 26.0647L23.9902 26.0757V26.0868H25.2088ZM25.0535 25.9235L24.9573 27.1384L24.9912 27.1411L25.0252 27.1419L25.0535 25.9235ZM24.9399 25.9662L25.7693 26.8591L25.7722 26.8564L24.9399 25.9662ZM24.8881 26.0802L26.1051 26.144L26.1056 26.1345L26.106 26.125L24.8881 26.0802ZM24.821 26.2057L24.1475 25.1899L24.1391 25.1956L24.821 26.2057ZM24.7752 26.4268L23.7509 27.0872L23.7512 27.0876L24.7752 26.4268ZM24.9983 26.4737L24.3631 25.4336L24.3466 25.4437L24.3305 25.4543L24.9983 26.4737ZM25.0147 26.4624L25.7685 25.5049L25.0535 24.942L24.3107 25.4676L25.0147 26.4624ZM26.4831 26.4614L27.2169 25.4885L26.4665 24.9225L25.7284 25.5045L26.4831 26.4614ZM27.4066 24.5429L26.1962 24.6852L26.3115 25.6655L27.2943 25.7564L27.4066 24.5429ZM26.9097 23.5061L27.7761 22.649L27.7761 22.649L26.9097 23.5061ZM23.0335 25.0619L22.1496 24.2229L22.1488 24.2237L23.0335 25.0619ZM24.0428 24.5483L24.1903 25.7581L25.1444 25.6417L25.2536 24.6868L24.0428 24.5483ZM24.5402 23.5063L25.4063 24.3637L25.4069 24.3632L24.5402 23.5063ZM29.5579 25.7495C29.5579 27.8528 27.8528 29.5579 25.7495 29.5579V31.9952C29.1989 31.9952 31.9952 29.1989 31.9952 25.7495H29.5579ZM25.7495 21.9411C27.8528 21.9411 29.5579 23.6462 29.5579 25.7495H31.9952C31.9952 22.3 29.1989 19.5037 25.7495 19.5037V21.9411ZM21.9411 25.7495C21.9411 23.6462 23.6462 21.9411 25.7495 21.9411V19.5037C22.3 19.5037 19.5037 22.3 19.5037 25.7495H21.9411ZM25.7495 29.5579C23.6462 29.5579 21.9411 27.8528 21.9411 25.7495H19.5037C19.5037 29.1989 22.3 31.9952 25.7495 31.9952V29.5579ZM25.6966 25.7704C26.0126 25.2755 26.6765 25.1233 27.1808 25.4623L25.8209 27.485C26.4688 27.9207 27.341 27.7241 27.751 27.082L25.6966 25.7704ZM26.0039 27.2211C25.5205 26.9006 25.3871 26.2545 25.697 25.7697L27.7505 27.0827C28.1549 26.4504 27.9798 25.6068 27.3509 25.1898L26.0039 27.2211ZM26.6106 26.0808C25.3938 26.1478 25.3938 26.1483 25.3938 26.1487C25.3938 26.1488 25.3939 26.1493 25.3939 26.1495C25.3939 26.1501 25.3939 26.1507 25.394 26.1513C25.394 26.1524 25.3941 26.1536 25.3942 26.1548C25.3943 26.1571 25.3945 26.1595 25.3946 26.162C25.395 26.1669 25.3953 26.172 25.3958 26.1773C25.3966 26.1878 25.3976 26.1992 25.3989 26.2113C25.4014 26.2353 25.4049 26.263 25.41 26.2936C25.4199 26.3531 25.4369 26.4327 25.4679 26.523C25.5243 26.6873 25.6651 26.9965 26.004 27.2212L27.3508 25.1897C27.6276 25.3732 27.735 25.62 27.7735 25.7323C27.7955 25.7966 27.8076 25.8527 27.8146 25.8953C27.8183 25.9174 27.821 25.9383 27.823 25.9576C27.824 25.9673 27.8249 25.9769 27.8256 25.9862C27.826 25.9908 27.8263 25.9955 27.8266 26C27.8268 26.0023 27.8269 26.0046 27.8271 26.0069C27.8271 26.008 27.8272 26.0092 27.8273 26.0103C27.8273 26.0109 27.8273 26.0115 27.8274 26.012C27.8274 26.0123 27.8274 26.0127 27.8274 26.0129C27.8274 26.0133 27.8275 26.0137 26.6106 26.0808ZM26.4503 27.142C25.8709 27.142 25.4053 26.6797 25.3923 26.1087L27.829 26.0529C27.8119 25.3073 27.2028 24.7046 26.4503 24.7046V27.142ZM26.4475 27.142H26.4503V24.7046H26.4475V27.142ZM27.2109 26.8197C27.015 27.022 26.7478 27.1366 26.4705 27.1418L26.4245 24.7049C26.062 24.7117 25.7148 24.8608 25.4597 25.1243L27.2109 26.8197ZM27.5084 26.0679C27.5131 26.3353 27.4135 26.6105 27.2107 26.8199L25.46 25.1241C25.1967 25.3959 25.0651 25.753 25.0714 26.111L27.5084 26.0679ZM27.4873 25.8934C27.5004 25.9454 27.5054 25.9923 27.5073 26.0331L25.0725 26.1457C25.076 26.2211 25.087 26.3428 25.1237 26.4885L27.4873 25.8934ZM24.4117 27.1286C25.1883 27.7772 26.3166 27.7748 27.0904 27.1232L25.5206 25.2587C25.651 25.1489 25.8432 25.1485 25.974 25.2578L24.4117 27.1286ZM23.9902 26.0868C23.9902 26.0491 23.9919 26.0165 23.9951 25.9871C23.9983 25.9573 24.0036 25.9242 24.0129 25.8883L26.3728 26.4981C26.4216 26.3092 26.4275 26.1571 26.4275 26.0868H23.9902ZM25.0252 27.1419C24.4355 27.1282 23.9799 26.6413 23.9904 26.0647L26.4273 26.1089C26.441 25.3562 25.8447 24.7229 25.0818 24.7052L25.0252 27.1419ZM25.7722 26.8564C25.6007 27.0167 25.3153 27.1667 24.9573 27.1384L25.1497 24.7086C24.7053 24.6735 24.3415 24.8573 24.1077 25.0759L25.7722 26.8564ZM26.106 26.125C26.0959 26.3988 25.979 26.6643 25.7693 26.8591L24.1105 25.0732C23.8381 25.3263 23.6836 25.6747 23.6703 26.0353L26.106 26.125ZM25.4944 27.2214C25.8333 26.9967 25.9745 26.6876 26.0312 26.5216C26.0623 26.4308 26.0793 26.3507 26.0891 26.2908C26.0942 26.26 26.0977 26.2321 26.1002 26.2079C26.1014 26.1957 26.1024 26.1843 26.1032 26.1737C26.1036 26.1684 26.104 26.1632 26.1043 26.1583C26.1045 26.1558 26.1046 26.1534 26.1048 26.151C26.1048 26.1498 26.1049 26.1486 26.105 26.1475C26.105 26.1469 26.105 26.1463 26.1051 26.1457C26.1051 26.1455 26.1051 26.145 26.1051 26.1449C26.1051 26.1444 26.1051 26.144 24.8881 26.0802C23.6711 26.0163 23.6711 26.0159 23.6712 26.0155C23.6712 26.0153 23.6712 26.0149 23.6712 26.0146C23.6712 26.014 23.6713 26.0135 23.6713 26.0129C23.6714 26.0118 23.6714 26.0106 23.6715 26.0095C23.6716 26.0072 23.6718 26.0049 23.6719 26.0026C23.6722 25.9979 23.6726 25.9933 23.6729 25.9886C23.6736 25.9792 23.6745 25.9696 23.6755 25.9598C23.6775 25.9404 23.6801 25.9194 23.6838 25.897C23.6908 25.8542 23.7028 25.7977 23.725 25.733C23.7638 25.6193 23.8714 25.373 24.1475 25.1899L25.4944 27.2214ZM25.7995 25.7665C26.1142 26.2547 25.9759 26.8964 25.5029 27.2157L24.1391 25.1956C23.5213 25.6127 23.3418 26.4526 23.7509 27.0872L25.7995 25.7665ZM24.3305 25.4543C24.8276 25.1287 25.4824 25.2753 25.7991 25.766L23.7512 27.0876C24.1611 27.7228 25.0211 27.9157 25.6661 27.4931L24.3305 25.4543ZM24.3107 25.4676C24.3081 25.4695 24.3058 25.4711 24.3044 25.4722C24.3036 25.4727 24.303 25.4732 24.3025 25.4735C24.3019 25.4739 24.302 25.4739 24.3016 25.4741C24.3005 25.4749 24.3032 25.473 24.3069 25.4704C24.3138 25.4655 24.3347 25.451 24.3631 25.4336L25.6335 27.5138C25.6675 27.493 25.6939 27.4747 25.7063 27.466C25.7127 27.4615 25.7181 27.4577 25.7197 27.4565C25.7226 27.4544 25.7206 27.4559 25.7187 27.4572L24.3107 25.4676ZM25.7481 25.4979C25.751 25.4979 25.755 25.4985 25.7592 25.4999C25.7633 25.5013 25.7665 25.5033 25.7685 25.5049L24.2609 27.42C24.6838 27.7529 25.2061 27.9353 25.7481 27.9353V25.4979ZM25.7284 25.5045C25.7302 25.5031 25.7332 25.5013 25.7372 25.4999C25.7412 25.4985 25.7451 25.4979 25.7481 25.4979V27.9353C26.2912 27.9353 26.8145 27.7521 27.2377 27.4183L25.7284 25.5045ZM27.1403 25.4362C27.1752 25.4578 27.2015 25.4768 27.2169 25.4885L25.7492 27.4344C25.7759 27.4545 25.8141 27.482 25.8615 27.5112L27.1403 25.4362ZM28.6169 24.4006C28.5395 23.7416 28.2477 23.1257 27.7761 22.649L26.0434 24.3632C26.1272 24.4479 26.1813 24.5584 26.1962 24.6852L28.6169 24.4006ZM30.1672 26.2853C30.1672 24.7699 29.034 23.4696 27.5189 23.3294L27.2943 25.7564C27.5051 25.7759 27.7299 25.9776 27.7299 26.2853H30.1672ZM27.2542 29.2532C28.8974 29.2532 30.1672 27.8862 30.1672 26.2853H27.7299C27.7299 26.6136 27.4789 26.8158 27.2542 26.8158V29.2532ZM24.2445 29.2532H27.2542V26.8158H24.2445V29.2532ZM21.3318 26.2853C21.3318 27.8858 22.6006 29.2532 24.2445 29.2532V26.8158C24.0198 26.8158 23.7691 26.614 23.7691 26.2853H21.3318ZM22.1488 24.2237C21.619 24.7829 21.3318 25.5189 21.3318 26.2853H23.7691C23.7691 26.1315 23.8249 25.9985 23.9181 25.9001L22.1488 24.2237ZM23.8952 23.3386C23.2252 23.4203 22.6131 23.7346 22.1496 24.2229L23.9174 25.9009C24.0001 25.8137 24.0954 25.7696 24.1903 25.7581L23.8952 23.3386ZM23.6742 22.6489C23.2002 23.1276 22.9078 23.7471 22.832 24.4099L25.2536 24.6868C25.2682 24.5593 25.3224 24.4484 25.4063 24.3637L23.6742 22.6489ZM25.7249 21.7887C24.9488 21.7887 24.2175 22.0994 23.6736 22.6495L25.4069 24.3632C25.5 24.269 25.61 24.2261 25.7249 24.2261V21.7887ZM27.7761 22.649C27.2321 22.0992 26.5008 21.7887 25.7249 21.7887V24.2261C25.84 24.2261 25.9503 24.2692 26.0434 24.3632L27.7761 22.649Z" fill="white" mask="url(#path-4-outside-1_627_6281)"/>
</g>
<defs>
<clipPath id="clip0_627_6281">
<rect width="32" height="32" fill="white"/>
</clipPath>
</defs>
</svg>
