<svg width="147" height="95" viewBox="0 0 147 95" fill="none" xmlns="http://www.w3.org/2000/svg">
<g clip-path="url(#clip0_2070_44887)">
<path fill-rule="evenodd" clip-rule="evenodd" d="M47.5788 7.31564C49.4939 6.80108 51.4852 6.5038 53.4994 6.43164C55.5136 6.5038 57.5057 6.80108 59.4231 7.31642C69.4948 10.0155 76.7914 18.3935 78.0133 28.6611C78.1439 29.7584 79.0228 30.6173 80.1258 30.7255C85.6011 31.2628 91.4501 34.3761 95.7727 39.0526C99.5689 43.1596 101.796 47.9584 102.214 52.9291V52.9314C102.361 54.661 102.264 56.4376 101.925 58.2103C101.919 58.2448 101.913 58.2793 101.908 58.3139C101.811 58.9877 101.644 59.7912 101.416 60.6615H106.274C106.403 60.0713 106.503 59.5248 106.575 59.0378C106.986 56.8619 107.101 54.6743 106.92 52.5345C106.414 46.512 103.76 40.7468 99.2462 35.8624C94.5585 30.7906 88.5175 27.3715 82.4325 26.2953C80.379 14.9398 71.9997 5.8127 60.6527 2.77165C58.4253 2.17238 56.1137 1.82333 53.7785 1.73312C53.6849 1.72293 53.5873 1.71665 53.4953 1.71979C53.4032 1.71587 53.3198 1.72371 53.2333 1.73234C50.8957 1.82254 48.581 2.17159 46.3536 2.77086C35.0034 5.8127 26.6234 14.9398 24.5714 26.2953C18.484 27.3715 12.4431 30.7906 7.75856 35.8624C3.24319 40.746 0.588574 46.5112 0.0826702 52.536C-0.0982908 54.6774 0.0181537 56.8643 0.428857 59.0378C0.808088 61.6145 1.98119 65.8588 4.05594 69.4269C9.68069 79.1148 19.6328 81.9574 27.6737 83.3521C33.4405 84.3531 38.9358 84.8613 52.9412 84.8628V80.1566C37.9375 80.155 33.338 79.5578 28.4811 78.7149C17.8965 76.8794 11.8131 73.3968 8.13876 67.0691C6.50775 64.2642 5.41648 60.565 5.09154 58.3146C5.08717 58.282 5.08146 58.25 5.07565 58.2175L5.07423 58.2095C4.73591 56.4384 4.63835 54.6618 4.78469 52.9299C5.20247 47.9577 7.43065 43.1588 11.2285 39.0518C15.5471 34.3761 21.3953 31.2628 26.8729 30.7255C27.9768 30.6173 28.8549 29.7576 28.9855 28.6611C30.2073 18.3943 37.504 10.0155 47.5788 7.31564Z" fill="black"/>
<path fill-rule="evenodd" clip-rule="evenodd" d="M71.4232 53.9953C70.3712 53.2211 69.1352 51.6657 69.1785 50.8978C69.2241 50.1024 68.8858 49.4082 68.2493 48.9925C67.5726 48.5509 66.6537 48.507 65.9054 48.8819C65.184 49.2443 64.726 49.9487 64.6796 50.766C64.6159 51.8885 64.9534 52.8462 65.4444 53.7059C58.0974 57.5674 48.3294 57.416 41.3915 53.2815C41.8353 52.3528 42.0713 51.2884 41.9187 50.075C41.7424 48.6858 40.4387 47.9783 39.3309 48.1164C38.1712 48.2615 37.4348 49.2074 37.5811 50.3636C37.7495 51.6979 36.6322 52.6407 35.1531 53.7365C34.504 54.2173 34.172 54.9836 34.2656 55.7837C34.3592 56.5916 34.8722 57.3078 35.574 57.6097C35.8211 57.7164 36.0784 57.7698 36.3356 57.7698C36.7605 57.7698 37.1846 57.6262 37.5638 57.3454C37.9218 57.0795 38.3467 56.7642 38.788 56.3987C43.1697 59.053 48.4813 60.388 53.8023 60.388C58.7661 60.3872 63.7347 59.2264 67.9527 56.896C68.2564 57.187 68.5829 57.4701 68.9432 57.736C69.3421 58.0294 69.7835 58.1721 70.2155 58.1721C70.8449 58.1721 71.4539 57.8694 71.8835 57.2897C72.5798 56.35 72.5986 54.8605 71.4232 53.9953" fill="black"/>
<path d="M89.3858 86.9457C89.4206 86.9457 89.4498 86.9738 89.4498 87.0096V87.4424C89.4498 89.4759 88.5193 90.3481 87.0618 90.3481C85.6043 90.3481 84.6367 89.4759 84.6367 87.4424V86.6644C84.6367 84.5837 85.6144 83.7126 87.0618 83.7126C88.353 83.7126 89.1835 84.4167 89.4094 85.7272C89.4161 85.7664 89.3858 85.8023 89.3464 85.8023H88.4193C88.3901 85.8023 88.3642 85.781 88.3575 85.7529C88.1901 85.0355 87.7788 84.6588 87.0618 84.6588C86.1965 84.6588 85.7268 85.2216 85.7268 86.6173V87.4424C85.7268 88.8392 86.1965 89.4008 87.0618 89.4008C87.9271 89.4008 88.2979 88.9188 88.3766 87.9098C88.3766 87.9009 88.3699 87.8919 88.3609 87.8919H87.154C87.1191 87.8919 87.0899 87.8639 87.0899 87.828V87.0085C87.0899 86.9738 87.118 86.9446 87.154 86.9446H89.3858V86.9457Z" fill="#FF0032"/>
<path d="M92.7261 86.7026C93.6453 86.7026 94.0948 86.4593 94.0948 85.7306C94.0948 85.002 93.6453 84.7497 92.7261 84.7497H91.7012C91.6922 84.7497 91.6855 84.7565 91.6855 84.7654V86.6869C91.6855 86.6959 91.6922 86.7026 91.7012 86.7026H92.7261V86.7026ZM94.1712 90.2182L92.9463 87.6465C92.9463 87.6465 92.9385 87.6375 92.9317 87.6375H91.7012C91.6922 87.6375 91.6855 87.6443 91.6855 87.6532V90.1902C91.6855 90.2249 91.6574 90.2541 91.6214 90.2541H90.6617C90.6269 90.2541 90.5977 90.226 90.5977 90.1902V83.8686C90.5977 83.8338 90.6258 83.8047 90.6617 83.8047H92.8014C94.2915 83.8047 95.1826 84.4493 95.1826 85.7295C95.1826 86.6107 94.7668 87.179 94.0274 87.4526C94.0184 87.4559 94.0139 87.466 94.0184 87.4739L95.3433 90.161C95.3647 90.2036 95.3332 90.2529 95.286 90.2529H94.2285C94.2038 90.2529 94.1813 90.2384 94.1712 90.2171" fill="#FF0032"/>
<path d="M97.9342 87.9828H99.6153C99.6266 87.9828 99.6333 87.9727 99.6299 87.9615L98.7894 85.4201C98.7849 85.4055 98.7635 85.4055 98.759 85.4201L97.9185 87.9615C97.9151 87.9716 97.9229 87.9828 97.9331 87.9828M96.0373 90.1689L98.2432 83.8473C98.2522 83.8215 98.2758 83.8047 98.3039 83.8047H99.2445C99.2715 83.8047 99.2962 83.8215 99.3052 83.8473L101.511 90.1689C101.526 90.2103 101.494 90.2529 101.45 90.2529H100.433C100.406 90.2529 100.382 90.235 100.373 90.2092L99.9502 88.9279C99.948 88.9211 99.9424 88.9167 99.9356 88.9167H97.624C97.6173 88.9167 97.6105 88.9211 97.6094 88.9279L97.1869 90.2092C97.1779 90.235 97.1543 90.2529 97.1262 90.2529H96.0991C96.0552 90.2529 96.0249 90.2103 96.0384 90.1689" fill="#FF0032"/>
<path d="M106.845 83.8696V90.1911C106.845 90.2259 106.817 90.255 106.781 90.255H105.916C105.894 90.255 105.873 90.2438 105.861 90.2237L103.275 85.9211C103.267 85.9076 103.246 85.9132 103.246 85.9289V90.1911C103.246 90.2259 103.218 90.255 103.182 90.255H102.259C102.225 90.255 102.195 90.227 102.195 90.1911V83.8696C102.195 83.8348 102.223 83.8057 102.259 83.8057H103.097C103.119 83.8057 103.139 83.8169 103.152 83.8371L105.766 88.1957C105.773 88.2091 105.795 88.2035 105.795 88.1878V83.8696C105.795 83.8348 105.823 83.8057 105.859 83.8057H106.781C106.816 83.8057 106.845 83.8337 106.845 83.8696" fill="#FF0032"/>
<path d="M111.544 87.4133V86.6465C111.544 85.3192 111.131 84.7497 110.203 84.7497H109.122C109.113 84.7497 109.106 84.7565 109.106 84.7654V89.3034C109.106 89.3124 109.113 89.3191 109.122 89.3191H110.203C111.131 89.3191 111.544 88.7395 111.544 87.4122M108.02 90.1902V83.8686C108.02 83.8338 108.048 83.8047 108.084 83.8047H110.204C111.657 83.8047 112.631 84.5805 112.631 86.6454V87.4122C112.631 89.4772 111.656 90.2529 110.204 90.2529H108.084C108.049 90.2529 108.02 90.2249 108.02 90.189" fill="#FF0032"/>
<path d="M133.181 85.0063C132.535 85.0063 132.188 85.4738 132.188 86.5298V87.5388C132.188 88.5948 132.534 89.0623 133.181 89.0623C133.828 89.0623 134.174 88.5948 134.174 87.5388V86.5298C134.174 85.4738 133.828 85.0063 133.181 85.0063Z" fill="#FF0032"/>
<path d="M116.57 78.9314V95.1384H146.676V78.9314H116.57ZM125.546 90.1957C125.546 90.2304 125.518 90.2596 125.482 90.2596H121.525C121.49 90.2596 121.461 90.2315 121.461 90.1957V83.8741C121.461 83.8393 121.489 83.8102 121.525 83.8102H122.952C122.987 83.8102 123.016 83.8382 123.016 83.8741V88.9535C123.016 88.9625 123.023 88.9692 123.032 88.9692H125.482C125.517 88.9692 125.546 88.9973 125.546 89.0331V90.1957ZM130.332 83.9032L128.368 87.6756C128.368 87.6756 128.365 87.68 128.365 87.6834V90.1957C128.365 90.2304 128.337 90.2596 128.301 90.2596H126.873C126.838 90.2596 126.809 90.2315 126.809 90.1957V87.6834C126.809 87.6834 126.809 87.6778 126.807 87.6756L124.842 83.9032C124.82 83.8606 124.851 83.8102 124.899 83.8102H126.541C126.566 83.8102 126.589 83.8248 126.6 83.8472L127.571 85.9929C127.576 86.0052 127.594 86.0052 127.6 85.9929L128.571 83.8472C128.581 83.8248 128.604 83.8102 128.629 83.8102H130.272C130.321 83.8102 130.351 83.8606 130.329 83.9032H130.332ZM135.728 87.5388C135.728 89.4636 134.651 90.3515 133.18 90.3515C131.709 90.3515 130.631 89.4636 130.631 87.5388V86.5298C130.631 84.586 131.709 83.7171 133.18 83.7171C134.651 83.7171 135.728 84.586 135.728 86.5298V87.5388V87.5388ZM141.785 90.1945C141.785 90.2293 141.757 90.2584 141.721 90.2584H140.564C140.542 90.2584 140.522 90.2484 140.511 90.2304L138.179 86.7328C138.17 86.7193 138.15 86.726 138.15 86.7417V90.1957C138.15 90.2304 138.122 90.2596 138.086 90.2596H136.752C136.717 90.2596 136.688 90.2315 136.688 90.1957V83.8741C136.688 83.8393 136.716 83.8102 136.752 83.8102H137.89C137.912 83.8102 137.932 83.8214 137.943 83.8382L140.293 87.383C140.302 87.3964 140.322 87.3897 140.322 87.374V83.873C140.322 83.8382 140.35 83.8091 140.386 83.8091H141.72C141.755 83.8091 141.784 83.8371 141.784 83.873V90.1945H141.785Z" fill="#FF0032"/>
<path d="M81.9902 69.8466H81.3126C81.3036 69.8466 81.2969 69.8533 81.2969 69.8623V71.2602C81.2969 71.2692 81.3036 71.2759 81.3126 71.2759H81.9902C82.6184 71.2759 83.0679 71.1918 83.0679 70.5842C83.0679 69.9766 82.6184 69.8455 81.9902 69.8455V69.8466Z" fill="#FF0032"/>
<path d="M99.9465 69.7534C99.3004 69.7534 98.9531 70.2209 98.9531 71.2769V72.2859C98.9531 73.3419 99.2992 73.8094 99.9465 73.8094C100.594 73.8094 100.94 73.3419 100.94 72.2859V71.2769C100.94 70.2209 100.594 69.7534 99.9465 69.7534Z" fill="#FF0032"/>
<path d="M88.1067 69.7534C87.4605 69.7534 87.1133 70.2209 87.1133 71.2769V72.2859C87.1133 73.3419 87.4594 73.8094 88.1067 73.8094C88.754 73.8094 89.1001 73.3419 89.1001 72.2859V71.2769C89.1001 70.2209 88.754 69.7534 88.1067 69.7534Z" fill="#FF0032"/>
<path d="M93.7669 69.8464H93.1837C93.1747 69.8464 93.168 69.8532 93.168 69.8621V71.5224C93.168 71.5314 93.1747 71.5381 93.1837 71.5381H93.7669C94.5817 71.5381 94.9379 71.2948 94.9379 70.6502C94.9379 70.1267 94.5817 69.8464 93.7669 69.8464Z" fill="#FF0032"/>
<path d="M56.4961 63.6785V79.8843H117.527V63.6785H56.4961ZM67.7753 74.9427C67.7753 74.9775 67.7472 75.0066 67.7113 75.0066H66.3774C66.3425 75.0066 66.3133 74.9786 66.3133 74.9427V71.4271C66.3133 71.4103 66.2908 71.4047 66.283 71.4204L65.0008 73.9069C64.9895 73.9282 64.9682 73.9416 64.9446 73.9416H64.1883C64.1647 73.9416 64.1422 73.9282 64.131 73.9069L62.8768 71.4496C62.869 71.435 62.8465 71.4406 62.8465 71.4563V74.9439C62.8465 74.9786 62.8184 75.0078 62.7824 75.0078H61.4485C61.4137 75.0078 61.3845 74.9797 61.3845 74.9439V68.6223C61.3845 68.5875 61.4126 68.5584 61.4485 68.5584H62.7892C62.8128 68.5584 62.8341 68.5718 62.8454 68.592L64.5647 71.8027C64.5704 71.8139 64.5872 71.8139 64.5928 71.8027L66.3032 68.592C66.3144 68.5707 66.3358 68.5584 66.3594 68.5584H67.709C67.7439 68.5584 67.7731 68.5864 67.7731 68.6223V74.9439L67.7753 74.9427ZM72.8446 69.7837C72.8446 69.8184 72.8154 69.8476 72.7806 69.8476H70.3319C70.3229 69.8476 70.3162 69.8543 70.3162 69.8633V71.009C70.3162 71.018 70.3229 71.0247 70.3319 71.0247H72.5008C72.5356 71.0247 72.5637 71.0527 72.5637 71.0875V72.2511C72.5637 72.2859 72.5345 72.315 72.4996 72.315H70.3319C70.3229 72.315 70.3162 72.3217 70.3162 72.3307V73.7006C70.3162 73.7096 70.3229 73.7163 70.3319 73.7163H72.7817C72.8165 73.7163 72.8446 73.7443 72.8446 73.7791V74.9427C72.8446 74.9775 72.8154 75.0066 72.7806 75.0066H68.8238C68.789 75.0066 68.7609 74.9786 68.7609 74.9439V68.6212C68.7609 68.5864 68.7901 68.5573 68.8249 68.5573H69.6633C69.6689 68.5573 69.6745 68.5539 69.6767 68.5494L70.2836 67.5304C70.2959 67.5124 70.3162 67.5012 70.3386 67.5012H71.9142C71.9681 67.5012 71.9973 67.5629 71.9647 67.6044L71.2871 68.5315C71.2792 68.5416 71.2871 68.5573 71.2995 68.5573H72.7806C72.8154 68.5573 72.8435 68.5853 72.8435 68.62V69.7837H72.8446ZM78.7545 69.7837C78.7545 69.8184 78.7264 69.8476 78.6905 69.8476H77.0835C77.0745 69.8476 77.0678 69.8543 77.0678 69.8633V74.9427C77.0678 74.9775 77.0397 75.0066 77.0037 75.0066H75.5765C75.5417 75.0066 75.5125 74.9786 75.5125 74.9427V69.8633C75.5125 69.8543 75.5057 69.8476 75.4967 69.8476H73.8897C73.8549 69.8476 73.8257 69.8196 73.8257 69.7837V68.6212C73.8257 68.5864 73.8538 68.5573 73.8897 68.5573H78.6905C78.7253 68.5573 78.7545 68.5853 78.7545 68.6212V69.7837V69.7837ZM84.7858 75.0055H83.2226C83.1979 75.0055 83.1743 74.9909 83.1642 74.9674L82.1078 72.5751C82.1056 72.5695 82.1 72.5661 82.0932 72.5661H81.3133C81.3044 72.5661 81.2976 72.5728 81.2976 72.5818V74.9416C81.2976 74.9764 81.2695 75.0055 81.2336 75.0055H79.8064C79.7715 75.0055 79.7423 74.9775 79.7423 74.9416V68.62C79.7423 68.5853 79.7704 68.5561 79.8064 68.5561H82.1786C83.6688 68.5561 84.624 69.2389 84.624 70.5841C84.624 71.4193 84.2542 71.9865 83.6081 72.2881C83.6002 72.2915 83.5968 72.3016 83.6002 72.3094L84.8431 74.9147C84.8633 74.9573 84.8319 75.0055 84.7858 75.0055V75.0055ZM90.6541 72.2859C90.6541 74.2107 89.5764 75.0986 88.1054 75.0986C86.6344 75.0986 85.5567 74.2107 85.5567 72.2859V71.2769C85.5567 69.333 86.6344 68.4642 88.1054 68.4642C89.5764 68.4642 90.6541 69.333 90.6541 71.2769V72.2859V72.2859ZM94.0501 72.8273H93.1859C93.1769 72.8273 93.1702 72.834 93.1702 72.843V74.9416C93.1702 74.9764 93.1421 75.0055 93.1061 75.0055H91.679C91.6441 75.0055 91.6149 74.9775 91.6149 74.9416V68.62C91.6149 68.5853 91.643 68.5561 91.679 68.5561H94.0512C95.5413 68.5561 96.4965 69.2108 96.4965 70.6491C96.4965 72.0874 95.5503 72.8262 94.0512 72.8262L94.0501 72.8273ZM102.496 72.2859C102.496 74.2107 101.419 75.0986 99.9476 75.0986C98.4766 75.0986 97.3989 74.2107 97.3989 72.2859V71.2769C97.3989 69.333 98.4766 68.4642 99.9476 68.4642C101.419 68.4642 102.496 69.333 102.496 71.2769V72.2859V72.2859ZM107.56 74.9416C107.56 74.9764 107.532 75.0055 107.496 75.0055H103.539C103.504 75.0055 103.475 74.9775 103.475 74.9416V68.62C103.475 68.5853 103.503 68.5561 103.539 68.5561H104.966C105.001 68.5561 105.03 68.5842 105.03 68.62V73.6995C105.03 73.7085 105.037 73.7152 105.046 73.7152H107.496C107.531 73.7152 107.56 73.7432 107.56 73.7791V74.9416ZM112.636 69.7826C112.636 69.8173 112.608 69.8465 112.572 69.8465H110.122C110.113 69.8465 110.106 69.8532 110.106 69.8622V71.0079C110.106 71.0168 110.113 71.0236 110.122 71.0236H112.291C112.326 71.0236 112.355 71.0516 112.355 71.0875V72.25C112.355 72.2847 112.327 72.3139 112.291 72.3139H110.122C110.113 72.3139 110.106 72.3206 110.106 72.3296V73.6995C110.106 73.7085 110.113 73.7152 110.122 73.7152H112.572C112.607 73.7152 112.636 73.7432 112.636 73.7791V74.9416C112.636 74.9764 112.608 75.0055 112.572 75.0055H108.615C108.58 75.0055 108.551 74.9775 108.551 74.9416V68.62C108.551 68.5853 108.579 68.5561 108.615 68.5561H112.572C112.607 68.5561 112.636 68.5842 112.636 68.62V69.7826V69.7826Z" fill="#FF0032"/>
</g>
<defs>
<clipPath id="clip0_2070_44887">
<rect width="147" height="95" fill="white"/>
</clipPath>
</defs>
</svg>
