<svg xmlns="http://www.w3.org/2000/svg" xmlns:xlink="http://www.w3.org/1999/xlink" viewBox="0 0 32 32"><defs><polygon id="a" points="0 0 32 0 32 28.706 0 28.706"/></defs><g fill="none" fill-rule="evenodd" transform="translate(0 1)"><mask id="b" fill="white"><use xlink:href="#a"/></mask><path fill="#F1471C" d="M17.3 4.4c.12-.9-.01-2.2.7-2.82.2-.96 1.7-.74 1.47-1.35-.15-.38-.85-.2-1.14-.12-.22.05-2.28.7-3.07.79L14.25.62c-1.3.17-2.04 1.2-2.76 2.02-.6.69-1.43 2.37-.77 3.37l-.11.66 1.47 2.15c.5.37.57.64 1.12 1l.34.5c.44.3 1.76.3 1.98.11 2.13.2 1.9-4.1 2.57-5a1.8 1.8 0 0 0-.78-1.03M8.17 17.3c.45-.12 1.21-.18 1.62-.38.64-.32 2.84-1.86 2.14-3.11-.22-2.64-3.4-.41-4.76-1.34-1.38-.18-2.92-2.77-3.33-3.89-.16-.44-.1-.29-.32-.63 0-.04-.14.12-.14.08-.4.47-.33.88-.39 2.02L2.45 10c-.03.42-.08.64-.27.85l-.12.21c-.34-.11-.17.05-.3-.24C.48 10.9.57 12.17 0 12.9c.03 2.37 4.72 5.3 8.17 4.4m15.59-7.2a9.4 9.4 0 0 0-4.08 1.5c-.54.38-.7.63-.8.79-.13.16-.2.5-.15.88.06.37.21.76.53.98 2.52-.2 6.88-.35 7.73 1.76.05.3.11.47.12.54.83-.2.22-.13 1.45.06.28.05.97-.1 1.43-.22.21-.05.33-.24.33-.24s-.04-.2-.03-.31c0 0 .43.03.61-.1 1.16-.2.55-.74 1.1-1.35-.33-3.95-4.38-4.87-8.24-4.29m-4.5 8.6c-.57.44-.82.33-1.16 1.02-.04 0 .05.1.02.1.34.7 1.14.98 1.73 1.47.18.15.67 1 .91 1.07.26.31.44 1.19.6 1.19.19.24 0 .82.17 1.04.01 1.04-.13 1.1-.31 1.3 0 .08.1.27.1.34.04.04.46.34.64.3.56.02 2.87 1.82 3.05 2.17 1.65.12 1.53-.38 2.67-.87.31-.13.56 0 .76-.21.21-.22.23-.65.43-.87.03-4.07-5.5-7.92-9.6-8.06m-6.51.93c-.23.25-.86.34-1.04.62-.27.42-.9 1.39-1.38 1.85-1.56 1.48-4.92 2.23-6.57.8-.1.02-.04.08.09.49.12.76.74 2.57.5 3.03.16.51.31.32.6.6.18.2.26.7.48.84l.76-.05.14.42.97-.07c.18.04.73.33.89.37l1.08-.07c.82.21 1.54-.13 2.23-.6.39-.26.81-.22 1.15-.51a8.02 8.02 0 0 0 1.5-1.84c.78-1.41.51-4.8-.2-5.64-.27-.3-.6-.3-1.2-.24" mask="url(#b)"/></g></svg>