<svg xmlns="http://www.w3.org/2000/svg" width="32" height="32" viewBox="0 0 32 32">
    <g fill="none" fill-rule="evenodd">
        <path fill="#010101" d="M13.818 15.708c0 .756.19 1.362.567 1.818.379.456.888.684 1.528.684.058 0 .14-.01.247-.03.107-.019.18-.028.218-.028.815-.214 1.445-.737 1.891-1.571.213-.369.373-.771.48-1.208.107-.436.165-.79.175-1.061.01-.272.014-.718.014-1.339v-.727c-1.125 0-1.978.078-2.56.233-1.707.485-2.56 1.561-2.56 3.229m-5.004.582c0-1.338.33-2.483.99-3.433.659-.95 1.56-1.668 2.705-2.153 1.047-.446 2.337-.766 3.87-.96a100.61 100.61 0 0 1 2.559-.232v-.495c0-1.241-.136-2.075-.407-2.502-.407-.582-1.047-.872-1.92-.872h-.233c-.64.058-1.193.261-1.658.61-.466.35-.766.834-.902 1.455-.077.388-.271.61-.582.67L9.891 7.97c-.33-.078-.495-.252-.495-.524 0-.058.01-.126.03-.203.33-1.727 1.139-3.007 2.428-3.84 1.29-.834 2.798-1.3 4.524-1.397h.727c2.211 0 3.937.572 5.178 1.717.195.194.375.403.539.625.164.223.295.422.392.596.097.175.185.427.262.757.078.33.136.557.175.683.039.126.068.398.087.815.02.417.03.664.03.742v7.04c0 .504.072.964.217 1.381.146.417.286.718.422.902.136.184.359.48.67.888.116.174.174.33.174.465 0 .155-.078.29-.233.407l-2.618 2.27c-.233.174-.514.193-.844.058a9.836 9.836 0 0 1-.713-.67 24.63 24.63 0 0 1-.436-.465 6.497 6.497 0 0 1-.422-.567 11.9 11.9 0 0 0-.407-.568c-1.086 1.183-2.153 1.92-3.2 2.211-.66.194-1.474.291-2.444.291-1.493 0-2.72-.46-3.68-1.382-.96-.92-1.44-2.225-1.44-3.912"/>
        <path fill="#F90" d="M.058 24.58c.097-.155.252-.164.466-.029 4.848 2.813 10.123 4.219 15.825 4.219 3.801 0 7.554-.708 11.258-2.124.097-.039.238-.097.422-.175.184-.077.315-.135.393-.174.29-.116.518-.058.683.174.165.233.112.447-.16.64-.349.253-.795.544-1.338.873-1.668.99-3.53 1.755-5.585 2.298-2.056.543-4.063.815-6.022.815-3.026 0-5.886-.529-8.582-1.586a23.631 23.631 0 0 1-7.243-4.465c-.117-.097-.175-.194-.175-.29 0-.06.02-.117.058-.175"/>
        <path fill="#F90" d="M26.036 25.075a.911.911 0 0 1 .175-.233c.485-.33.95-.552 1.396-.669a9.484 9.484 0 0 1 2.153-.32c.194-.02.378-.01.553.03.872.077 1.396.222 1.57.436.078.116.117.29.117.523v.204c0 .679-.184 1.479-.553 2.4-.368.921-.882 1.663-1.542 2.225-.097.078-.184.117-.262.117a.258.258 0 0 1-.116-.03c-.116-.057-.145-.164-.087-.32.717-1.687 1.076-2.86 1.076-3.52 0-.213-.039-.368-.116-.465-.194-.232-.737-.349-1.63-.349-.329 0-.717.02-1.163.058-.485.059-.93.117-1.338.175-.116 0-.194-.02-.233-.058-.039-.039-.048-.078-.029-.117 0-.019.01-.048.03-.087"/>
    </g>
</svg>
