<svg id="Layer_1" data-name="Layer 1" xmlns="http://www.w3.org/2000/svg" viewBox="0 0 48 48"><defs><style>.cls-1{fill:#ff7900;}</style></defs><title>orange</title><polygon class="cls-1" points="18.81 43.28 18.81 43.28 18.81 43.28 18.81 43.28"/><path class="cls-1" d="M16.36,41.88h0a.8.8,0,0,0,.79.86,2.45,2.45,0,0,0,1.62-.7V40.46C17.13,40.67,16.36,41.09,16.36,41.88Z"/><path class="cls-1" d="M5.93,38.5h0c-1.31,0-1.55,1.18-1.55,2s.24,2,1.55,2,1.55-1.18,1.55-2S7.24,38.5,5.93,38.5Z"/><path class="cls-1" d="M33.7,38l0,0v0Z"/><path class="cls-1" d="M39.47,38.23c-.8,0-1.29.51-1.36,1.42h2.7A1.27,1.27,0,0,0,39.47,38.23Z"/><path class="cls-1" d="M45.33,0H2.67A2.67,2.67,0,0,0,0,2.67V45.33A2.67,2.67,0,0,0,2.67,48H45.33A2.67,2.67,0,0,0,48,45.33V2.67A2.67,2.67,0,0,0,45.33,0ZM5.93,44.05h0a3.18,3.18,0,0,1-3.3-3.51A3.19,3.19,0,0,1,5.93,37a3.19,3.19,0,0,1,3.29,3.52A3.18,3.18,0,0,1,5.93,44.05Zm8.23-5.33h-.09c-.76,0-1.6.12-1.87.71v4.43H10.42V37.2h1.67V38a2.6,2.6,0,0,1,1.84-.92h.23Zm6.36,5.14H19l-.16-.58a4,4,0,0,1-2.2.66,1.85,1.85,0,0,1-2-1.94c0-1.49,1.37-2.28,4.2-2.59V39c0-.48-.37-.76-1-.76a2,2,0,0,0-1.63.76L15,38.36a3.25,3.25,0,0,1,2.84-1.3c1.74,0,2.71.75,2.71,2Zm7.37,0H26.13V39.52c0-.82-.21-1.18-.84-1.18a2.58,2.58,0,0,0-1.65.73v4.78H21.91V37.37h0l1.45-.2.16.79a3.73,3.73,0,0,1,2.29-.92c1.37,0,2.08.72,2.08,2.17Zm7.41-.37c0,1.11-.09,3-3.26,3-1.31,0-2.52-.52-2.76-1.66L31,44.51c.07.33.27.65,1.25.65s1.34-.43,1.34-1.47v-.78l0,0a1.75,1.75,0,0,1-1.72,1c-1.55,0-2.77-1.08-2.77-3.33s1.26-3.48,2.67-3.48,1.78.56,1.92.89l.14-.76H35.3Zm7.22-2.7H38.08c0,1.26.54,1.9,1.57,1.9a1.71,1.71,0,0,0,1.51-.85l1.29.71a3.23,3.23,0,0,1-3,1.44h0c-2,0-3.13-1.26-3.13-3.45s1.19-3.48,3.11-3.48,3.06,1.22,3.06,3.39C42.53,40.55,42.52,40.67,42.52,40.78Zm.7-5.82h-.69v1.91h-.36V35h-.69v-.29h1.74Zm2.87,1.91h-.36V35h0L45,36.87h-.24L44,35h0v1.83h-.36v-2.2h.56l.66,1.67.64-1.67h.56Z"/><path class="cls-1" d="M32.17,38.29c-.64,0-1.34.46-1.34,2,0,.82.06,2.18,1.35,2.17h0c1.32,0,1.44-1.37,1.44-2.25C33.62,39.14,33.11,38.29,32.17,38.29Z"/></svg>