<svg xmlns="http://www.w3.org/2000/svg" viewBox="0 0 32 32"><g fill="none" fill-rule="evenodd"><polyline fill="#01A1AB" points="30.991 8 0 10.234 1.009 24.22 32 21.986 30.991 8"/><path fill="#FFFFFF" d="M5.63 18.74c.62 0 1.23-.21 1.23-.67 0-.36-.05-.53-.89-.84-.27-.1-.9-.34-1.27-.51-1.08-.5-1.67-1.26-1.67-2.47 0-1.7 1.41-2.72 2.93-2.72 1.1 0 2.12.51 2.73.91l-.87 1.68s-.89-.68-1.71-.68c-.55 0-.86.3-.86.74 0 .46.52.62.97.79l.92.36c1.29.52 1.94 1.3 1.94 2.58 0 1.83-1.7 2.8-3.4 2.8a5.3 5.3 0 0 1-2.95-1.07s.7-1.4.89-1.73c.41.37 1.2.83 2 .83zm17.24 1.65v-8.55h2.08v2.59s.65-1.03 2-1.03 2.46.99 2.46 2.28v4.7h-2.14v-4c0-.58-.16-1.11-1.07-1.11-.67 0-1.23.54-1.23 1.2v3.92h-2.1zm6.35-6.7l.16-.84.3.63.27-.62.17.83h-.11l-.1-.52-.24.54-.25-.53-.1.5h-.1zm-.48-.71v-.1h.46v.1h-.17v.7h-.11v-.7h-.18zm-9.07 5.95c.33 0 .73-.16.73-.48 0-.85-3.07-.4-3.07-2.81 0-1.33 1.1-2.24 2.63-2.24.98 0 1.81.55 2.24 1.51l-1.57.7s-.25-.54-.85-.54c-.34 0-.55.14-.55.4 0 .78 3.16.47 3.16 2.81 0 1.48-1.3 2.28-2.75 2.28-1.15 0-2-.43-2.53-1.43l1.6-.8s.34.6.96.6zm-6.45 1.7A3.7 3.7 0 0 1 9.52 17c0-2.06 1.64-3.6 3.75-3.6 2.07 0 3.69 1.5 3.69 3.56 0 2.09-1.5 3.66-3.74 3.66z"/></g></svg>